<svg xmlns="http://www.w3.org/2000/svg" viewBox="0 0 90 134.29"><g id="Layer_2" data-name="Layer 2"><g id="Layer_1-2" data-name="Layer 1"><path d="M45,99S72,54,90,54C90,15.43,63,0,63,0L45,99,27,0S0,15.43,0,54C18,54,45,99,45,99Z"/><path d="M29.75,107.6l-2.21,4.46H14.94l-1.49,3v1.45l.73,1.48h9.67c.12.27.36.76.72,1.49-.12.26-.36.76-.72,1.48H14.18c-.12.27-.36.76-.73,1.49v3c.37.74,1.1,2.23,2.21,4.45h5.22l.72,1.49h5.94c.24.5.74,1.49,1.49,3H12c-.51-1-1.5-3-3-5.93V110.57c.24-.5.74-1.49,1.48-3Z"/><path d="M48.33,109.09q.95,1.84,3.7,7.39v8.91q-1.1,2.23-4.42,8.9H34.24c-.5-1-1.49-3-3-5.93V110.57c.24-.5.74-1.49,1.49-3H43.88c.12.24.37.74.76,1.49Zm-11.88,1.48-.72,1.49v16.3c.12.24.36.73.72,1.48h8.91q.54-1.12,2.25-4.45v-8.91q-.59-1.1-2.25-4.42H40.91c-.12-.27-.38-.76-.76-1.49Z"/><path d="M59.49,107.6v26.69h-3l-1.49-3V110.57c.24-.5.74-1.49,1.49-3Z"/><path d="M79.51,107.6l1.49,3v1.49H74.34v19.27c-.25.5-.74,1.49-1.49,3h-3l-1.48-3V112.06H61.7v-1.49c.26-.5.76-1.49,1.48-3Z"/></g></g></svg>